<?xml version="1.0" standalone="no"?><!DOCTYPE svg PUBLIC "-//W3C//DTD SVG 1.1//EN" "http://www.w3.org/Graphics/SVG/1.1/DTD/svg11.dtd"><svg t="1595922323491" class="icon" viewBox="0 0 1877 1024" version="1.1" xmlns="http://www.w3.org/2000/svg" p-id="9460" xmlns:xlink="http://www.w3.org/1999/xlink" width="366.6015625" height="200"><defs><style type="text/css"></style></defs><path d="M723.2 680.533333l-29.866667-113.066666h2.133334c25.6 32 64 57.6 115.2 74.666666l8.533333-19.2c-46.933333-12.8-83.2-34.133333-108.8-59.733333l81.066667-21.333333-4.266667-17.066667-98.133333 25.6-10.666667-44.8 85.333333-23.466667-4.266666-17.066666-85.333334 23.466666-8.533333-34.133333-19.2 4.266667 8.533333 34.133333-83.2 21.333333 4.266667 19.2 83.2-21.333333 10.666667 44.8-98.133334 25.6 4.266667 17.066667 81.066667-21.333334c-8.533333 38.4-29.866667 74.666667-64 106.666667l14.933333 12.8c34.133333-38.4 55.466667-78.933333 64-123.733333h2.133333l29.866667 113.066666 19.2-6.4zM853.333333 460.8l8.533334-14.933333c-14.933333-10.666667-32-19.2-53.333334-27.733334l-8.533333 14.933334c23.466667 8.533333 40.533333 19.2 53.333333 27.733333z m83.2 123.733333l-10.666666-42.666666 40.533333-10.666667 10.666667 42.666667 17.066666-4.266667-10.666666-42.666667 40.533333-10.666666 4.266667 19.2c2.133333 6.4 0 8.533333-6.4 10.666666l-19.2 2.133334 8.533333 14.933333 21.333333-6.4c12.8-4.266667 19.2-12.8 14.933334-25.6l-29.866667-110.933333-49.066667 12.8-4.266666-2.133334c14.933333-14.933333 27.733333-29.866667 38.4-46.933333l-4.266667-12.8-134.4 36.266667 4.266667 14.933333 108.8-29.866667c-8.533333 10.666667-19.2 21.333333-29.866667 32-10.666667-4.266667-21.333333-8.533333-34.133333-10.666666l-8.533334 12.8c12.8 2.133333 25.6 6.4 38.4 10.666666l-61.866666 17.066667 36.266666 132.266667 19.2-2.133334z m74.666667-121.6l-40.533333 10.666667-6.4-21.333333 40.533333-10.666667 6.4 21.333333z m-57.6 14.933334l-40.533333 10.666666-6.4-21.333333 40.533333-10.666667 6.4 21.333334z m-87.466667 164.266666c8.533333-25.6 14.933333-40.533333 21.333334-42.666666 2.133333 0 6.4 0 10.666666 4.266666 10.666667 6.4 21.333333 10.666667 32 10.666667s23.466667-2.133333 40.533334-6.4c14.933333-4.266667 29.866667-8.533333 44.8-10.666667l55.466666-14.933333v-19.2c-6.4 2.133333-14.933333 4.266667-27.733333 8.533333-12.8 4.266667-23.466667 6.4-36.266667 10.666667-19.2 4.266667-36.266667 8.533333-49.066666 12.8-14.933333 4.266667-25.6 4.266667-36.266667 2.133333-8.533333-2.133333-14.933333-4.266667-23.466667-10.666666-2.133333-2.133333-4.266667-2.133333-8.533333-4.266667L866.133333 490.666667l-51.2 12.8 4.266667 17.066666L853.333333 512l19.2 74.666667c-8.533333 6.4-17.066667 23.466667-25.6 46.933333l19.2 8.533333z m96-128l-40.533333 10.666667-6.4-21.333333 40.533333-10.666667 6.4 21.333333z m57.6-14.933333l-40.533333 10.666667-6.4-21.333334 40.533333-10.666666 6.4 21.333333z m228.266667 0c14.933333-4.266667 21.333333-12.8 17.066667-27.733333L1237.333333 362.666667l36.266667-10.666667-4.266667-17.066667-36.266666 10.666667-10.666667-40.533333-17.066667 4.266666 10.666667 40.533334-93.866667 25.6 4.266667 17.066666 93.866667-25.6 27.733333 104.533334c2.133333 6.4 0 10.666667-8.533333 12.8-10.666667 2.133333-21.333333 4.266667-34.133334 8.533333l8.533334 17.066667 34.133333-10.666667z m-149.333333-102.4l8.533333-17.066667c-14.933333-10.666667-32-19.2-53.333333-27.733333l-8.533334 14.933333c23.466667 8.533333 40.533333 19.2 53.333334 29.866667z m96 61.866667l10.666666-12.8c-12.8-10.666667-27.733333-23.466667-49.066666-38.4l-10.666667 12.8c21.333333 12.8 36.266667 25.6 49.066667 38.4z m-81.066667 119.466666c8.533333-27.733333 14.933333-40.533333 21.333333-42.666666 4.266667 0 6.4 0 12.8 4.266666 10.666667 6.4 21.333333 10.666667 32 10.666667s25.6-2.133333 42.666667-6.4c17.066667-4.266667 32-8.533333 46.933333-12.8l51.2-14.933333v-19.2c-6.4 2.133333-14.933333 4.266667-25.6 8.533333-10.666667 2.133333-21.333333 6.4-34.133333 8.533333-21.333333 6.4-38.4 10.666667-51.2 12.8-14.933333 4.266667-27.733333 4.266667-36.266667 4.266667-8.533333-2.133333-17.066667-4.266667-23.466666-10.666667-2.133333-2.133333-6.4-2.133333-8.533334-4.266666l-25.6-91.733334-53.333333 14.933334 4.266667 17.066666 36.266666-8.533333 19.2 74.666667c-8.533333 6.4-17.066667 23.466667-25.6 49.066666l17.066667 6.4z" fill="#999999" p-id="9461"></path><path d="M405.333333 962.133333c-38.4 0-76.8-29.866667-87.466666-72.533333L206.933333 477.866667c-6.4-25.6-4.266667-51.2 6.4-72.533334s29.866667-38.4 51.2-42.666666l185.6-49.066667c6.4-2.133333 10.666667 2.133333 12.8 8.533333 2.133333 6.4-2.133333 10.666667-8.533333 12.8L268.8 384c-17.066667 4.266667-29.866667 14.933333-38.4 32-8.533333 17.066667-10.666667 36.266667-4.266667 55.466667l110.933334 411.733333c10.666667 40.533333 46.933333 64 83.2 55.466667l618.666666-164.266667c6.4-2.133333 10.666667 2.133333 12.8 8.533333 2.133333 6.4-2.133333 10.666667-8.533333 12.8l-618.666667 164.266667c-6.4 2.133333-12.8 2.133333-19.2 2.133333z m714.666667-189.866666c-4.266667 0-8.533333-2.133333-10.666667-8.533334-2.133333-6.4 2.133333-10.666667 8.533334-12.8l100.266666-27.733333c6.4-2.133333 10.666667 2.133333 12.8 8.533333 2.133333 6.4-2.133333 10.666667-8.533333 12.8l-100.266667 27.733334h-2.133333z m236.8-61.866667c-4.266667 0-8.533333-2.133333-10.666667-8.533333-2.133333-6.4 2.133333-10.666667 8.533334-12.8l238.933333-64c17.066667-4.266667 29.866667-14.933333 38.4-32 8.533333-17.066667 10.666667-36.266667 4.266667-55.466667L1525.333333 123.733333c-10.666667-40.533333-46.933333-64-83.2-55.466666L620.8 288c-6.4 2.133333-10.666667-2.133333-12.8-8.533333-2.133333-6.4 2.133333-10.666667 8.533333-12.8L1437.866667 46.933333c46.933333-12.8 93.866667 19.2 108.8 70.4l110.933333 411.733334c6.4 25.6 4.266667 49.066667-6.4 72.533333-10.666667 21.333333-29.866667 38.4-51.2 42.666667l-238.933333 64c-2.133333 2.133333-4.266667 2.133333-4.266667 2.133333z" fill="#EBEBEB" p-id="9462"></path></svg>