<?xml version="1.0" standalone="no"?><!DOCTYPE svg PUBLIC "-//W3C//DTD SVG 1.1//EN" "http://www.w3.org/Graphics/SVG/1.1/DTD/svg11.dtd"><svg t="1595922316635" class="icon" viewBox="0 0 1839 1024" version="1.1" xmlns="http://www.w3.org/2000/svg" p-id="9327" xmlns:xlink="http://www.w3.org/1999/xlink" width="359.1796875" height="200"><defs><style type="text/css"></style></defs><path d="M733.518367 504.01698l8.359184-14.628572c-14.628571-10.44898-31.346939-18.808163-52.244898-27.167347l-8.359184 14.628572c22.987755 10.44898 39.706122 18.808163 52.244898 27.167347z m81.502041 121.208163l-10.448979-41.795919 39.706122-10.448979 10.44898 41.795918 16.718367-4.179592-10.44898-41.795918 39.706123-10.44898 4.179592 18.808164c2.089796 6.269388 0 8.359184-6.269388 10.448979l-18.808163 4.179592 8.359183 14.628572 20.897959-6.269388c12.538776-4.179592 18.808163-12.538776 14.628572-25.077551l-29.257143-108.669388-48.065306 12.538776-4.179592-2.089796c14.628571-14.628571 27.167347-29.257143 37.616327-45.975511l-2.089796-12.538775-131.657143 35.526531 4.179592 14.628571 106.579592-29.257143c-8.359184 10.44898-18.808163 20.897959-29.257143 31.346939-10.44898-4.179592-20.897959-8.359184-33.436735-10.44898l-8.359184 12.538776c12.538776 2.089796 25.077551 6.269388 37.616327 10.448979l-58.514286 16.718368 35.526531 129.567347 14.628571-4.179592z m73.142857-119.118367l-39.706122 10.448979-6.269388-20.897959 39.706123-10.44898 6.269387 20.89796z m-58.514285 14.628571l-39.706123 10.44898-6.269388-20.89796 39.706123-10.448979 6.269388 20.897959z m-83.591837 163.004082c8.359184-25.077551 14.628571-39.706122 20.897959-41.795919 2.089796 0 6.269388 0 10.44898 4.179592 10.44898 6.269388 20.897959 10.44898 31.346938 10.44898s22.987755-2.089796 39.706123-6.269388c14.628571-4.179592 29.257143-8.359184 43.885714-10.44898l54.334694-14.628571v-18.808163c-6.269388 2.089796-14.628571 4.179592-27.167347 8.359183-12.538776 4.179592-22.987755 6.269388-35.526531 10.44898-18.808163 4.179592-35.526531 8.359184-48.065306 12.538775-14.628571 4.179592-25.077551 4.179592-35.52653 2.089796-8.359184-2.089796-14.628571-4.179592-22.987755-10.448979-2.089796-2.089796-4.179592-2.089796-8.359184-4.179592l-25.077551-89.861225-50.155102 12.538776 4.179592 16.718367 33.436734-8.359183 18.808164 73.142857c-8.359184 6.269388-16.718367 22.987755-25.077551 45.97551l20.897959 8.359184z m94.040816-125.387756l-39.706122 10.44898-6.269388-20.897959 39.706122-10.44898 6.269388 20.897959z m56.42449-16.718367l-39.706122 10.44898-6.269388-20.897959 39.706122-10.44898 6.269388 20.897959z m223.608163 0c14.628571-4.179592 20.897959-12.538776 16.718368-27.167347l-29.257143-106.579592 35.52653-10.448979-4.179591-16.718368-35.526531 10.44898-10.44898-39.706122-16.718367 4.179591 10.44898 39.706123-91.951021 25.077551 4.179592 16.718367 91.95102-25.077551 27.167347 102.4c2.089796 6.269388 0 10.44898-8.359183 12.538776-10.44898 2.089796-20.897959 4.179592-33.436735 8.359183l8.359184 16.718368 35.52653-10.44898z m-146.285714-100.310204l8.359184-16.718367c-14.628571-10.44898-31.346939-18.808163-52.244898-27.167347l-8.359184 14.628571c22.987755 10.44898 39.706122 18.808163 52.244898 29.257143z m94.040816 60.604082l10.44898-12.538776c-12.538776-10.44898-27.167347-22.987755-48.065306-37.616326l-10.44898 12.538775c20.897959 12.538776 35.526531 27.167347 48.065306 37.616327z m-79.412245 117.028571c8.359184-27.167347 14.628571-39.706122 20.89796-41.795918 4.179592 0 6.269388 0 12.538775 4.179592 10.44898 6.269388 20.897959 10.44898 31.346939 10.448979s25.077551-2.089796 41.795918-6.269388c16.718367-4.179592 31.346939-8.359184 45.97551-12.538775l50.155102-14.628572v-18.808163c-6.269388 2.089796-14.628571 4.179592-25.077551 8.359184-10.44898 2.089796-20.897959 6.269388-33.436734 8.359184-20.897959 6.269388-37.616327 10.44898-50.155102 12.538775-14.628571 4.179592-27.167347 4.179592-35.526531 4.179592-8.359184-2.089796-16.718367-4.179592-22.987755-10.44898-2.089796-2.089796-6.269388-2.089796-8.359184-4.179592l-25.077551-89.861224-52.244898 14.628571 2.089796 16.718368 35.526531-8.359184 18.808163 73.142857c-8.359184 6.269388-16.718367 22.987755-25.077551 48.065306l18.808163 6.269388z" fill="#52C41A" p-id="9328"></path><path d="M394.971429 972.131265c-16.718367 0-31.346939-4.179592-45.975511-14.628571-18.808163-12.538776-33.436735-33.436735-39.706122-58.514286l-108.669388-401.240816c-6.269388-25.077551-4.179592-48.065306 6.269388-71.053061 10.44898-20.897959 29.257143-37.616327 50.155102-41.795919l181.812245-48.065306c6.269388-2.089796 10.44898 2.089796 12.538775 8.359184 2.089796 6.269388-2.089796 10.44898-8.359183 12.538775l-181.812245 48.065306c-16.718367 4.179592-29.257143 14.628571-37.616327 31.346939-8.359184 16.718367-10.44898 35.526531-4.179592 54.334694l108.669388 403.330612c4.179592 18.808163 16.718367 35.526531 31.346939 45.975511 14.628571 10.44898 31.346939 12.538776 48.065306 8.359183l606.040816-160.914286c6.269388-2.089796 10.44898 2.089796 12.538776 8.359184 2.089796 6.269388-2.089796 10.44898-8.359184 12.538776l-606.040816 160.914285c-4.179592 2.089796-10.44898 2.089796-16.718367 2.089796z m700.081632-185.991836c-4.179592 0-8.359184-2.089796-10.448979-8.359184-2.089796-6.269388 2.089796-10.44898 8.359183-12.538776l98.220408-27.167347c6.269388-2.089796 10.44898 2.089796 12.538776 8.359184 2.089796 6.269388-2.089796 10.44898-8.359184 12.538776l-98.220408 27.167347h-2.089796z m231.967347-60.604082c-4.179592 0-8.359184-2.089796-10.448979-8.359184-2.089796-6.269388 2.089796-10.44898 8.359183-12.538775l234.057143-62.693878c33.436735-8.359184 52.244898-48.065306 41.795918-87.771428l-108.669387-403.330613c-10.44898-39.706122-45.97551-62.693878-81.502041-54.334693L606.040816 311.755755c-6.269388 2.089796-10.44898-2.089796-12.538775-8.359184-2.089796-6.269388 2.089796-10.44898 8.359183-12.538775l804.571429-213.159184c45.97551-12.538776 91.95102 18.808163 106.579592 68.963266l108.669388 403.330612c12.538776 50.155102-12.538776 100.310204-58.514286 112.848979l-234.057143 62.693878h-2.089796z" fill="#DCF3D1" p-id="9329"></path></svg>